<?xml version="1.0" standalone="no"?>
<!DOCTYPE svg PUBLIC "-//W3C//DTD SVG 20010904//EN"
 "http://www.w3.org/TR/2001/REC-SVG-20010904/DTD/svg10.dtd">
<svg version="1.0" xmlns="http://www.w3.org/2000/svg"
 width="1024.000000pt" height="1024.000000pt" viewBox="0 0 1024.000000 1024.000000"
 preserveAspectRatio="xMidYMid meet">

<g transform="translate(0.000000,1024.000000) scale(0.100000,-0.100000)"
fill="currentColor" stroke="none">
<path d="M4375 7880 c-295 -26 -581 -168 -790 -393 -212 -227 -329 -506 -336
-797 l-2 -85 199 -3 c184 -2 200 -4 220 -23 27 -25 35 -63 22 -101 -18 -51
-47 -58 -253 -58 l-185 0 0 -110 0 -110 199 0 200 0 20 -26 c30 -38 28 -94 -5
-125 -25 -23 -30 -24 -222 -27 l-197 -3 3 -105 3 -104 194 0 c169 0 195 -2
214 -17 46 -38 42 -126 -8 -152 -12 -7 -95 -11 -216 -11 -176 0 -196 -2 -191
-16 3 -9 6 -57 6 -107 l0 -92 195 0 195 0 27 -27 c37 -37 37 -89 0 -126 l-27
-27 -202 -3 -201 -4 6 -176 c8 -205 27 -315 82 -453 196 -494 692 -816 1209
-785 96 6 136 11 224 31 l22 5 0 1999 0 1999 -47 11 c-107 22 -244 30 -358 21z"/>
<path d="M5622 6928 c-149 -376 -357 -900 -462 -1165 l-190 -482 2 -843 3
-842 77 194 c42 107 181 461 308 785 127 325 283 719 346 877 63 158 114 292
114 297 0 29 20 14 35 -27 10 -26 103 -269 206 -541 104 -271 189 -495 189
-497 0 -2 -146 -4 -323 -4 l-324 0 -103 -262 c-56 -145 -105 -269 -107 -275
-4 -10 108 -13 527 -15 l532 -3 14 -35 c7 -19 106 -280 219 -580 113 -300 239
-629 278 -732 l72 -188 383 0 c299 0 382 3 382 13 0 6 -20 64 -44 127 -24 63
-92 243 -151 400 -207 550 -559 1480 -762 2015 -113 297 -265 698 -338 890
-73 193 -192 505 -265 695 -72 190 -177 465 -233 613 -55 147 -104 267 -107
267 -4 0 -129 -307 -278 -682z"/>
<path d="M2760 5608 c-81 -42 -82 -45 -77 -423 4 -352 12 -426 64 -605 201
-698 797 -1208 1526 -1305 l47 -6 0 -310 0 -309 -189 0 c-179 0 -190 -1 -222
-23 -91 -61 -89 -181 5 -251 27 -20 40 -21 543 -24 501 -3 516 -2 557 18 98
47 114 174 32 250 -27 25 -30 25 -227 28 l-199 3 0 308 0 309 67 7 c36 4 72 9
80 12 10 4 13 39 13 149 0 161 6 151 -81 133 -87 -16 -350 -13 -464 6 -312 53
-573 191 -810 429 -200 200 -319 401 -389 657 -47 173 -56 263 -56 577 0 251
-2 276 -20 311 -13 27 -33 46 -63 60 -55 27 -82 26 -137 -1z"/>
</g>
</svg>
